<?xml version="1.0" encoding="UTF-8"?>
<!DOCTYPE svg PUBLIC "-//W3C//DTD SVG 1.1//EN" "http://www.w3.org/Graphics/SVG/1.1/DTD/svg11.dtd">
<svg xmlns="http://www.w3.org/2000/svg" version="1.1" width="1008px" height="665px" style="shape-rendering:geometricPrecision; text-rendering:geometricPrecision; image-rendering:optimizeQuality; fill-rule:evenodd; clip-rule:evenodd" xmlns:xlink="http://www.w3.org/1999/xlink">
<g><path style="opacity:0.997" fill="#000000" d="M 14.5,-0.5 C 339.167,-0.5 663.833,-0.5 988.5,-0.5C 999.287,-0.958656 1005.62,4.04134 1007.5,14.5C 1007.5,226.5 1007.5,438.5 1007.5,650.5C 1006.84,657.499 1003.17,662.165 996.5,664.5C 667.833,664.5 339.167,664.5 10.5,664.5C 8.01382,663.338 5.51382,662.004 3,660.5C 1.52203,657.842 0.355367,655.175 -0.5,652.5C -0.5,438.833 -0.5,225.167 -0.5,11.5C 2.13167,4.53458 7.13167,0.534581 14.5,-0.5 Z"/></g>
<g><path style="opacity:1" fill="#fcfcfc" d="M 192.5,204.5 C 241.501,204.333 290.501,204.5 339.5,205C 354.18,209.186 359.346,218.686 355,233.5C 353.667,235.5 352.333,237.5 351,239.5C 304.833,285.667 258.667,331.833 212.5,378C 206.26,383.787 198.927,386.121 190.5,385C 176.613,378.007 173.113,367.507 180,353.5C 215.139,317.361 250.639,281.528 286.5,246C 255.5,245.667 224.5,245.333 193.5,245C 179.854,241.336 174.354,232.503 177,218.5C 179.844,211.151 185.011,206.484 192.5,204.5 Z"/></g>
<g><path style="opacity:1" fill="#fcfcfc" d="M 677.5,312.5 C 658.833,312.5 640.167,312.5 621.5,312.5C 621.5,313.5 621.5,314.5 621.5,315.5C 621.333,334.503 621.5,353.503 622,372.5C 628.89,403.712 648.39,420.212 680.5,422C 696.912,427.095 701.079,437.261 693,452.5C 687.428,459.194 680.262,461.86 671.5,460.5C 635.061,457.871 608.227,440.537 591,408.5C 585.634,397.069 582.301,385.069 581,372.5C 580.333,322.167 580.333,271.833 581,221.5C 586.604,205.615 597.104,201.115 612.5,208C 616.734,211.639 619.568,216.139 621,221.5C 621.5,238.497 621.667,255.497 621.5,272.5C 641.169,272.333 660.836,272.5 680.5,273C 694.464,277.759 699.297,287.259 695,301.5C 691.162,308.336 685.329,312.003 677.5,312.5 Z"/></g>
<g><path style="opacity:1" fill="#fcfcfc" d="M 729.5,204.5 C 741.215,203.104 749.382,207.771 754,218.5C 755.46,236.431 755.96,254.431 755.5,272.5C 774.17,272.333 792.836,272.5 811.5,273C 829.374,277.248 834.541,287.748 827,304.5C 823.138,309.036 818.305,311.869 812.5,313C 793.503,313.5 774.503,313.667 755.5,313.5C 755.333,333.503 755.5,353.503 756,373.5C 760.22,395.381 772.72,410.214 793.5,418C 801.067,419.841 808.734,421.175 816.5,422C 829.116,427.14 833.282,436.306 829,449.5C 823.179,457.742 815.179,461.408 805,460.5C 761.272,456.108 732.272,433.108 718,391.5C 716.231,384.276 715.231,376.943 715,369.5C 714.333,320.833 714.333,272.167 715,223.5C 716.484,214.499 721.317,208.166 729.5,204.5 Z"/></g>
<g><path style="opacity:1" fill="#fdfdfd" d="M 543.5,386.5 C 502.161,386.167 460.828,386.5 419.5,387.5C 419.624,388.107 419.957,388.44 420.5,388.5C 430.769,410.475 448.102,420.975 472.5,420C 482.305,419.301 491.305,416.301 499.5,411C 504.138,406.346 509.471,402.679 515.5,400C 530.661,397.571 539.327,403.905 541.5,419C 541.406,422.357 540.573,425.523 539,428.5C 524.183,446.664 505.017,457.164 481.5,460C 437.775,463.725 405.275,446.558 384,408.5C 365.738,364.543 373.905,326.376 408.5,294C 440.875,269.577 475.541,265.91 512.5,283C 543.454,300.387 560.121,326.887 562.5,362.5C 564.252,377.026 557.919,385.026 543.5,386.5 Z"/></g>
<g><path style="opacity:1" fill="#fdfdfd" d="M 246.5,419.5 C 245.957,419.56 245.624,419.893 245.5,420.5C 276.493,421.5 307.493,421.833 338.5,421.5C 347.311,421.823 353.145,426.156 356,434.5C 358.601,446.463 354.434,454.963 343.5,460C 292.5,460.667 241.5,460.667 190.5,460C 177.884,454.86 173.718,445.694 178,432.5C 179.333,430.5 180.667,428.5 182,426.5C 228.833,379.667 275.667,332.833 322.5,286C 334.027,277.836 344.527,279.003 354,289.5C 357.49,297.298 357.157,304.965 353,312.5C 317.271,348.062 281.771,383.728 246.5,419.5 Z"/></g>
<g><path style="opacity:1" fill="#909090" d="M 677.5,312.5 C 658.772,312.859 640.106,313.859 621.5,315.5C 621.5,314.5 621.5,313.5 621.5,312.5C 640.167,312.5 658.833,312.5 677.5,312.5 Z"/></g>
<g><path style="opacity:1" fill="#020202" d="M 516.5,344.5 C 484.671,345.498 452.671,345.832 420.5,345.5C 429.499,324.643 445.499,313.643 468.5,312.5C 484.921,313.295 498.754,319.629 510,331.5C 513.238,335.309 515.404,339.642 516.5,344.5 Z"/></g>
<g><path style="opacity:1" fill="#434343" d="M 516.5,344.5 C 517.043,344.56 517.376,344.893 517.5,345.5C 485.003,346.83 452.669,346.83 420.5,345.5C 452.671,345.832 484.671,345.498 516.5,344.5 Z"/></g>
<g><path style="opacity:1" fill="#707070" d="M 543.5,386.5 C 502.5,387.167 461.5,387.833 420.5,388.5C 419.957,388.44 419.624,388.107 419.5,387.5C 460.828,386.5 502.161,386.167 543.5,386.5 Z"/></g>
<g><path style="opacity:1" fill="#c9c9c9" d="M 246.5,419.5 C 277.167,420.167 307.833,420.833 338.5,421.5C 307.493,421.833 276.493,421.5 245.5,420.5C 245.624,419.893 245.957,419.56 246.5,419.5 Z"/></g>
</svg>
